<?xml version="1.0" encoding="UTF-8" standalone="no"?>
<!DOCTYPE svg PUBLIC "-//W3C//DTD SVG 1.1//EN"
 "http://www.w3.org/Graphics/SVG/1.1/DTD/svg11.dtd">
<!-- Generated by graphviz version 2.47.0 (20210316.0004)
 -->
<!-- Title: dependencies Pages: 1 -->
<svg width="1012pt" height="211pt"
 viewBox="0.00 0.00 1012.00 211.00" xmlns="http://www.w3.org/2000/svg" xmlns:xlink="http://www.w3.org/1999/xlink">
<g id="graph0" class="graph" transform="scale(1 1) rotate(0) translate(4 207)">
<title>dependencies</title>
<polygon fill="white" stroke="transparent" points="-4,4 -4,-207 1008,-207 1008,4 -4,4"/>
<text text-anchor="start" x="481.01" y="-42.4" font-family="Times-12" font-weight="bold" font-size="14.00">Legend</text>
<polygon fill="#ffffb3" stroke="transparent" points="268,-10 268,-30 288,-30 288,-10 268,-10"/>
<text text-anchor="start" x="291.63" y="-15.4" font-family="Times-12" font-size="14.00"> &#160;Declarations</text>
<polygon fill="#8dd3c7" stroke="transparent" points="381,-10 381,-30 401,-30 401,-10 381,-10"/>
<text text-anchor="start" x="404.73" y="-15.4" font-family="Times-12" font-size="14.00"> &#160;Module</text>
<polygon fill="#80b1d3" stroke="transparent" points="467,-10 467,-30 487,-30 487,-10 467,-10"/>
<text text-anchor="start" x="490.78" y="-15.4" font-family="Times-12" font-size="14.00"> &#160;Bootstrap</text>
<polygon fill="#fdb462" stroke="transparent" points="564,-10 564,-30 584,-30 584,-10 564,-10"/>
<text text-anchor="start" x="587.67" y="-15.4" font-family="Times-12" font-size="14.00"> &#160;Providers</text>
<polygon fill="#fb8072" stroke="transparent" points="660,-10 660,-30 680,-30 680,-10 660,-10"/>
<text text-anchor="start" x="683.73" y="-15.4" font-family="Times-12" font-size="14.00"> &#160;Exports</text>
<g id="clust1" class="cluster">
<title>cluster_AppModule</title>
<polygon fill="none" stroke="black" stroke-dasharray="1,5" points="8,-70 8,-195 996,-195 996,-70 8,-70"/>
</g>
<g id="clust3" class="cluster">
<title>cluster_AppModule_imports</title>
<polygon fill="none" stroke="black" points="154,-78 154,-130 988,-130 988,-78 154,-78"/>
</g>
<g id="clust6" class="cluster">
<title>cluster_AppModule_providers</title>
<polygon fill="none" stroke="black" points="16,-78 16,-130 146,-130 146,-78 16,-78"/>
</g>
<!-- AuthModule -->
<g id="node1" class="node">
<title>AuthModule</title>
<polygon fill="#8dd3c7" stroke="black" points="979.55,-122 976.55,-126 955.55,-126 952.55,-122 892.45,-122 892.45,-86 979.55,-86 979.55,-122"/>
<text text-anchor="middle" x="936" y="-99.8" font-family="Times,serif" font-size="14.00">AuthModule</text>
</g>
<!-- AppModule -->
<g id="node8" class="node">
<title>AppModule</title>
<polygon fill="#8dd3c7" stroke="black" points="527.66,-187 524.66,-191 503.66,-191 500.66,-187 444.34,-187 444.34,-151 527.66,-151 527.66,-187"/>
<text text-anchor="middle" x="486" y="-164.8" font-family="Times,serif" font-size="14.00">AppModule</text>
</g>
<!-- AuthModule&#45;&gt;AppModule -->
<g id="edge1" class="edge">
<title>AuthModule&#45;&gt;AppModule</title>
<path fill="none" stroke="black" d="M936,-122.29C936,-144.21 936,-178 936,-178 936,-178 537.93,-178 537.93,-178"/>
<polygon fill="black" stroke="black" points="537.93,-174.5 527.93,-178 537.93,-181.5 537.93,-174.5"/>
</g>
<!-- DatabaseModule -->
<g id="node2" class="node">
<title>DatabaseModule</title>
<polygon fill="#8dd3c7" stroke="black" points="874.35,-122 871.35,-126 850.35,-126 847.35,-122 763.65,-122 763.65,-86 874.35,-86 874.35,-122"/>
<text text-anchor="middle" x="819" y="-99.8" font-family="Times,serif" font-size="14.00">DatabaseModule</text>
</g>
<!-- DatabaseModule&#45;&gt;AppModule -->
<g id="edge2" class="edge">
<title>DatabaseModule&#45;&gt;AppModule</title>
<path fill="none" stroke="black" d="M819,-122.11C819,-141.34 819,-169 819,-169 819,-169 537.84,-169 537.84,-169"/>
<polygon fill="black" stroke="black" points="537.84,-165.5 527.84,-169 537.84,-172.5 537.84,-165.5"/>
</g>
<!-- EasyTestModule -->
<g id="node3" class="node">
<title>EasyTestModule</title>
<polygon fill="#8dd3c7" stroke="black" points="745.36,-122 742.36,-126 721.36,-126 718.36,-122 634.64,-122 634.64,-86 745.36,-86 745.36,-122"/>
<text text-anchor="middle" x="690" y="-99.8" font-family="Times,serif" font-size="14.00">EasyTestModule</text>
</g>
<!-- EasyTestModule&#45;&gt;AppModule -->
<g id="edge3" class="edge">
<title>EasyTestModule&#45;&gt;AppModule</title>
<path fill="none" stroke="black" d="M690,-122.03C690,-138.4 690,-160 690,-160 690,-160 537.77,-160 537.77,-160"/>
<polygon fill="black" stroke="black" points="537.77,-156.5 527.77,-160 537.77,-163.5 537.77,-156.5"/>
</g>
<!-- LeaderboardModule -->
<g id="node4" class="node">
<title>LeaderboardModule</title>
<polygon fill="#8dd3c7" stroke="black" points="616.28,-122 613.28,-126 592.28,-126 589.28,-122 485.72,-122 485.72,-86 616.28,-86 616.28,-122"/>
<text text-anchor="middle" x="551" y="-99.8" font-family="Times,serif" font-size="14.00">LeaderboardModule</text>
</g>
<!-- LeaderboardModule&#45;&gt;AppModule -->
<g id="edge4" class="edge">
<title>LeaderboardModule&#45;&gt;AppModule</title>
<path fill="none" stroke="black" d="M506.84,-122.11C506.84,-122.11 506.84,-140.99 506.84,-140.99"/>
<polygon fill="black" stroke="black" points="503.34,-140.99 506.84,-150.99 510.34,-140.99 503.34,-140.99"/>
</g>
<!-- QuestModule -->
<g id="node5" class="node">
<title>QuestModule</title>
<polygon fill="#8dd3c7" stroke="black" points="468.21,-122 465.21,-126 444.21,-126 441.21,-122 375.79,-122 375.79,-86 468.21,-86 468.21,-122"/>
<text text-anchor="middle" x="422" y="-99.8" font-family="Times,serif" font-size="14.00">QuestModule</text>
</g>
<!-- QuestModule&#45;&gt;AppModule -->
<g id="edge5" class="edge">
<title>QuestModule&#45;&gt;AppModule</title>
<path fill="none" stroke="black" d="M456.14,-122.11C456.14,-122.11 456.14,-140.99 456.14,-140.99"/>
<polygon fill="black" stroke="black" points="452.64,-140.99 456.14,-150.99 459.64,-140.99 452.64,-140.99"/>
</g>
<!-- RedisModule -->
<g id="node6" class="node">
<title>RedisModule</title>
<polygon fill="#8dd3c7" stroke="black" points="357.94,-122 354.94,-126 333.94,-126 330.94,-122 266.06,-122 266.06,-86 357.94,-86 357.94,-122"/>
<text text-anchor="middle" x="312" y="-99.8" font-family="Times,serif" font-size="14.00">RedisModule</text>
</g>
<!-- RedisModule&#45;&gt;AppModule -->
<g id="edge6" class="edge">
<title>RedisModule&#45;&gt;AppModule</title>
<path fill="none" stroke="black" d="M312,-122.03C312,-138.4 312,-160 312,-160 312,-160 434.32,-160 434.32,-160"/>
<polygon fill="black" stroke="black" points="434.32,-163.5 444.32,-160 434.32,-156.5 434.32,-163.5"/>
</g>
<!-- UserModule -->
<g id="node7" class="node">
<title>UserModule</title>
<polygon fill="#8dd3c7" stroke="black" points="247.98,-122 244.98,-126 223.98,-126 220.98,-122 162.02,-122 162.02,-86 247.98,-86 247.98,-122"/>
<text text-anchor="middle" x="205" y="-99.8" font-family="Times,serif" font-size="14.00">UserModule</text>
</g>
<!-- UserModule&#45;&gt;AppModule -->
<g id="edge7" class="edge">
<title>UserModule&#45;&gt;AppModule</title>
<path fill="none" stroke="black" d="M205,-122.11C205,-141.34 205,-169 205,-169 205,-169 434.23,-169 434.23,-169"/>
<polygon fill="black" stroke="black" points="434.23,-172.5 444.23,-169 434.23,-165.5 434.23,-172.5"/>
</g>
<!-- AppService -->
<g id="node9" class="node">
<title>AppService</title>
<ellipse fill="#fdb462" stroke="black" cx="81" cy="-104" rx="56.74" ry="18"/>
<text text-anchor="middle" x="81" y="-99.8" font-family="Times,serif" font-size="14.00">AppService</text>
</g>
<!-- AppService&#45;&gt;AppModule -->
<g id="edge8" class="edge">
<title>AppService&#45;&gt;AppModule</title>
<path fill="none" stroke="black" d="M81,-122.29C81,-144.21 81,-178 81,-178 81,-178 434.18,-178 434.18,-178"/>
<polygon fill="black" stroke="black" points="434.18,-181.5 444.18,-178 434.18,-174.5 434.18,-181.5"/>
</g>
</g>
</svg>
