<?xml version="1.0" encoding="UTF-8" standalone="no"?>
<!DOCTYPE svg PUBLIC "-//W3C//DTD SVG 1.1//EN"
 "http://www.w3.org/Graphics/SVG/1.1/DTD/svg11.dtd">
<!-- Generated by graphviz version 2.47.0 (20210316.0004)
 -->
<!-- Title: dependencies Pages: 1 -->
<svg width="1619pt" height="298pt"
 viewBox="0.00 0.00 1619.00 298.00" xmlns="http://www.w3.org/2000/svg" xmlns:xlink="http://www.w3.org/1999/xlink">
<g id="graph0" class="graph" transform="scale(1 1) rotate(0) translate(4 294)">
<title>dependencies</title>
<polygon fill="white" stroke="transparent" points="-4,4 -4,-294 1615,-294 1615,4 -4,4"/>
<text text-anchor="start" x="784.51" y="-42.4" font-family="Times-12" font-weight="bold" font-size="14.00">Legend</text>
<polygon fill="#ffffb3" stroke="transparent" points="571.5,-10 571.5,-30 591.5,-30 591.5,-10 571.5,-10"/>
<text text-anchor="start" x="595.13" y="-15.4" font-family="Times-12" font-size="14.00"> &#160;Declarations</text>
<polygon fill="#8dd3c7" stroke="transparent" points="684.5,-10 684.5,-30 704.5,-30 704.5,-10 684.5,-10"/>
<text text-anchor="start" x="708.23" y="-15.4" font-family="Times-12" font-size="14.00"> &#160;Module</text>
<polygon fill="#80b1d3" stroke="transparent" points="770.5,-10 770.5,-30 790.5,-30 790.5,-10 770.5,-10"/>
<text text-anchor="start" x="794.28" y="-15.4" font-family="Times-12" font-size="14.00"> &#160;Bootstrap</text>
<polygon fill="#fdb462" stroke="transparent" points="867.5,-10 867.5,-30 887.5,-30 887.5,-10 867.5,-10"/>
<text text-anchor="start" x="891.17" y="-15.4" font-family="Times-12" font-size="14.00"> &#160;Providers</text>
<polygon fill="#fb8072" stroke="transparent" points="963.5,-10 963.5,-30 983.5,-30 983.5,-10 963.5,-10"/>
<text text-anchor="start" x="987.23" y="-15.4" font-family="Times-12" font-size="14.00"> &#160;Exports</text>
<g id="clust1" class="cluster">
<title>cluster_AppModule</title>
<polygon fill="none" stroke="black" stroke-dasharray="1,5" points="8,-146 8,-274 995,-274 995,-146 8,-146"/>
</g>
<g id="clust3" class="cluster">
<title>cluster_AppModule_imports</title>
<polygon fill="none" stroke="black" points="154,-154 154,-206 987,-206 987,-154 154,-154"/>
</g>
<g id="clust6" class="cluster">
<title>cluster_AppModule_providers</title>
<polygon fill="none" stroke="black" points="16,-154 16,-206 146,-206 146,-154 16,-154"/>
</g>
<g id="clust7" class="cluster">
<title>cluster_AuthModule</title>
<polygon fill="none" stroke="black" stroke-dasharray="1,5" points="9,-70 9,-138 159,-138 159,-70 9,-70"/>
</g>
<g id="clust12" class="cluster">
<title>cluster_AuthModule_providers</title>
<polygon fill="none" stroke="black" points="17,-78 17,-130 151,-130 151,-78 17,-78"/>
</g>
<g id="clust13" class="cluster">
<title>cluster_DatabaseModule</title>
<polygon fill="none" stroke="black" stroke-dasharray="1,5" points="1003,-214 1003,-282 1321,-282 1321,-214 1003,-214"/>
</g>
<g id="clust16" class="cluster">
<title>cluster_DatabaseModule_exports</title>
<polygon fill="none" stroke="black" points="1185,-222 1185,-274 1313,-274 1313,-222 1185,-222"/>
</g>
<g id="clust18" class="cluster">
<title>cluster_DatabaseModule_providers</title>
<polygon fill="none" stroke="black" points="1011,-222 1011,-274 1177,-274 1177,-222 1011,-222"/>
</g>
<g id="clust19" class="cluster">
<title>cluster_EasyTestModule</title>
<polygon fill="none" stroke="black" stroke-dasharray="1,5" points="167,-70 167,-138 349,-138 349,-70 167,-70"/>
</g>
<g id="clust24" class="cluster">
<title>cluster_EasyTestModule_providers</title>
<polygon fill="none" stroke="black" points="175,-78 175,-130 341,-130 341,-78 175,-78"/>
</g>
<g id="clust25" class="cluster">
<title>cluster_LeaderboardModule</title>
<polygon fill="none" stroke="black" stroke-dasharray="1,5" points="357,-70 357,-138 567,-138 567,-70 357,-70"/>
</g>
<g id="clust30" class="cluster">
<title>cluster_LeaderboardModule_providers</title>
<polygon fill="none" stroke="black" points="365,-78 365,-130 559,-130 559,-78 365,-78"/>
</g>
<g id="clust31" class="cluster">
<title>cluster_QuestModule</title>
<polygon fill="none" stroke="black" stroke-dasharray="1,5" points="575,-70 575,-138 733,-138 733,-70 575,-70"/>
</g>
<g id="clust36" class="cluster">
<title>cluster_QuestModule_providers</title>
<polygon fill="none" stroke="black" points="583,-78 583,-130 725,-130 725,-78 583,-78"/>
</g>
<g id="clust37" class="cluster">
<title>cluster_RedisModule</title>
<polygon fill="none" stroke="black" stroke-dasharray="1,5" points="1329,-214 1329,-282 1603,-282 1603,-214 1329,-214"/>
</g>
<g id="clust40" class="cluster">
<title>cluster_RedisModule_exports</title>
<polygon fill="none" stroke="black" points="1485,-222 1485,-274 1595,-274 1595,-222 1485,-222"/>
</g>
<g id="clust42" class="cluster">
<title>cluster_RedisModule_providers</title>
<polygon fill="none" stroke="black" points="1337,-222 1337,-274 1477,-274 1477,-222 1337,-222"/>
</g>
<g id="clust43" class="cluster">
<title>cluster_UserModule</title>
<polygon fill="none" stroke="black" stroke-dasharray="1,5" points="741,-70 741,-138 889,-138 889,-70 741,-70"/>
</g>
<g id="clust48" class="cluster">
<title>cluster_UserModule_providers</title>
<polygon fill="none" stroke="black" points="749,-78 749,-130 881,-130 881,-78 749,-78"/>
</g>
<!-- AuthModule -->
<g id="node1" class="node">
<title>AuthModule</title>
<polygon fill="#8dd3c7" stroke="black" points="249.55,-198 246.55,-202 225.55,-202 222.55,-198 162.45,-198 162.45,-162 249.55,-162 249.55,-198"/>
<text text-anchor="middle" x="206" y="-175.8" font-family="Times,serif" font-size="14.00">AuthModule</text>
</g>
<!-- AppModule -->
<g id="node8" class="node">
<title>AppModule</title>
<polygon fill="#8dd3c7" stroke="black" points="567.66,-266 564.66,-270 543.66,-270 540.66,-266 484.34,-266 484.34,-230 567.66,-230 567.66,-266"/>
<text text-anchor="middle" x="526" y="-243.8" font-family="Times,serif" font-size="14.00">AppModule</text>
</g>
<!-- AuthModule&#45;&gt;AppModule -->
<g id="edge1" class="edge">
<title>AuthModule&#45;&gt;AppModule</title>
<path fill="none" stroke="black" d="M206,-198.22C206,-218.37 206,-248 206,-248 206,-248 474.17,-248 474.17,-248"/>
<polygon fill="black" stroke="black" points="474.17,-251.5 484.17,-248 474.17,-244.5 474.17,-251.5"/>
</g>
<!-- DatabaseModule -->
<g id="node2" class="node">
<title>DatabaseModule</title>
<polygon fill="#8dd3c7" stroke="black" points="869.35,-198 866.35,-202 845.35,-202 842.35,-198 758.65,-198 758.65,-162 869.35,-162 869.35,-198"/>
<text text-anchor="middle" x="814" y="-175.8" font-family="Times,serif" font-size="14.00">DatabaseModule</text>
</g>
<!-- DatabaseModule&#45;&gt;AppModule -->
<g id="edge2" class="edge">
<title>DatabaseModule&#45;&gt;AppModule</title>
<path fill="none" stroke="black" d="M814,-198.17C814,-219.5 814,-252 814,-252 814,-252 577.88,-252 577.88,-252"/>
<polygon fill="black" stroke="black" points="577.88,-248.5 567.88,-252 577.88,-255.5 577.88,-248.5"/>
</g>
<!-- DatabaseService  -->
<g id="node11" class="node">
<title>DatabaseService </title>
<polygon fill="#fb8072" stroke="black" points="1305.28,-266 1192.72,-266 1192.72,-230 1305.28,-230 1305.28,-266"/>
<text text-anchor="middle" x="1249" y="-243.8" font-family="Times,serif" font-size="14.00">DatabaseService </text>
</g>
<!-- DatabaseModule&#45;&gt;DatabaseService  -->
<g id="edge10" class="edge">
<title>DatabaseModule&#45;&gt;DatabaseService </title>
<path fill="none" stroke="black" stroke-dasharray="5,2" d="M786.29,-198.19C786.29,-206.28 786.29,-214 786.29,-214 786.29,-214 1249,-214 1249,-214 1249,-214 1249,-219.81 1249,-219.81"/>
<polygon fill="black" stroke="black" points="1245.5,-219.81 1249,-229.81 1252.5,-219.81 1245.5,-219.81"/>
</g>
<!-- EasyTestModule -->
<g id="node3" class="node">
<title>EasyTestModule</title>
<polygon fill="#8dd3c7" stroke="black" points="378.36,-198 375.36,-202 354.36,-202 351.36,-198 267.64,-198 267.64,-162 378.36,-162 378.36,-198"/>
<text text-anchor="middle" x="323" y="-175.8" font-family="Times,serif" font-size="14.00">EasyTestModule</text>
</g>
<!-- EasyTestModule&#45;&gt;AppModule -->
<g id="edge3" class="edge">
<title>EasyTestModule&#45;&gt;AppModule</title>
<path fill="none" stroke="black" d="M323,-198.02C323,-215.37 323,-239 323,-239 323,-239 473.94,-239 473.94,-239"/>
<polygon fill="black" stroke="black" points="473.94,-242.5 483.94,-239 473.94,-235.5 473.94,-242.5"/>
</g>
<!-- LeaderboardModule -->
<g id="node4" class="node">
<title>LeaderboardModule</title>
<polygon fill="#8dd3c7" stroke="black" points="527.28,-198 524.28,-202 503.28,-202 500.28,-198 396.72,-198 396.72,-162 527.28,-162 527.28,-198"/>
<text text-anchor="middle" x="462" y="-175.8" font-family="Times,serif" font-size="14.00">LeaderboardModule</text>
</g>
<!-- LeaderboardModule&#45;&gt;AppModule -->
<g id="edge4" class="edge">
<title>LeaderboardModule&#45;&gt;AppModule</title>
<path fill="none" stroke="black" d="M505.66,-198.22C505.66,-198.22 505.66,-219.73 505.66,-219.73"/>
<polygon fill="black" stroke="black" points="502.16,-219.73 505.66,-229.73 509.16,-219.73 502.16,-219.73"/>
</g>
<!-- QuestModule -->
<g id="node5" class="node">
<title>QuestModule</title>
<polygon fill="#8dd3c7" stroke="black" points="637.21,-198 634.21,-202 613.21,-202 610.21,-198 544.79,-198 544.79,-162 637.21,-162 637.21,-198"/>
<text text-anchor="middle" x="591" y="-175.8" font-family="Times,serif" font-size="14.00">QuestModule</text>
</g>
<!-- QuestModule&#45;&gt;AppModule -->
<g id="edge5" class="edge">
<title>QuestModule&#45;&gt;AppModule</title>
<path fill="none" stroke="black" d="M556.36,-198.22C556.36,-198.22 556.36,-219.73 556.36,-219.73"/>
<polygon fill="black" stroke="black" points="552.86,-219.73 556.36,-229.73 559.86,-219.73 552.86,-219.73"/>
</g>
<!-- RedisModule -->
<g id="node6" class="node">
<title>RedisModule</title>
<polygon fill="#8dd3c7" stroke="black" points="978.94,-198 975.94,-202 954.94,-202 951.94,-198 887.06,-198 887.06,-162 978.94,-162 978.94,-198"/>
<text text-anchor="middle" x="933" y="-175.8" font-family="Times,serif" font-size="14.00">RedisModule</text>
</g>
<!-- RedisModule&#45;&gt;AppModule -->
<g id="edge6" class="edge">
<title>RedisModule&#45;&gt;AppModule</title>
<path fill="none" stroke="black" d="M933,-198.32C933,-221.66 933,-259 933,-259 933,-259 578.02,-259 578.02,-259"/>
<polygon fill="black" stroke="black" points="578.02,-255.5 568.02,-259 578.02,-262.5 578.02,-255.5"/>
</g>
<!-- RedisService  -->
<g id="node16" class="node">
<title>RedisService </title>
<polygon fill="#fb8072" stroke="black" points="1586.86,-266 1493.14,-266 1493.14,-230 1586.86,-230 1586.86,-266"/>
<text text-anchor="middle" x="1540" y="-243.8" font-family="Times,serif" font-size="14.00">RedisService </text>
</g>
<!-- RedisModule&#45;&gt;RedisService  -->
<g id="edge15" class="edge">
<title>RedisModule&#45;&gt;RedisService </title>
<path fill="none" stroke="black" stroke-dasharray="5,2" d="M978.87,-174C1120.28,-174 1540,-174 1540,-174 1540,-174 1540,-219.71 1540,-219.71"/>
<polygon fill="black" stroke="black" points="1536.5,-219.71 1540,-229.71 1543.5,-219.71 1536.5,-219.71"/>
</g>
<!-- UserModule -->
<g id="node7" class="node">
<title>UserModule</title>
<polygon fill="#8dd3c7" stroke="black" points="740.98,-198 737.98,-202 716.98,-202 713.98,-198 655.02,-198 655.02,-162 740.98,-162 740.98,-198"/>
<text text-anchor="middle" x="698" y="-175.8" font-family="Times,serif" font-size="14.00">UserModule</text>
</g>
<!-- UserModule&#45;&gt;AppModule -->
<g id="edge7" class="edge">
<title>UserModule&#45;&gt;AppModule</title>
<path fill="none" stroke="black" d="M698,-198.11C698,-217.34 698,-245 698,-245 698,-245 578.08,-245 578.08,-245"/>
<polygon fill="black" stroke="black" points="578.08,-241.5 568.08,-245 578.08,-248.5 578.08,-241.5"/>
</g>
<!-- AppService -->
<g id="node9" class="node">
<title>AppService</title>
<ellipse fill="#fdb462" stroke="black" cx="81" cy="-180" rx="56.74" ry="18"/>
<text text-anchor="middle" x="81" y="-175.8" font-family="Times,serif" font-size="14.00">AppService</text>
</g>
<!-- AppService&#45;&gt;AppModule -->
<g id="edge8" class="edge">
<title>AppService&#45;&gt;AppModule</title>
<path fill="none" stroke="black" d="M81,-198.25C81,-221.02 81,-257 81,-257 81,-257 474.14,-257 474.14,-257"/>
<polygon fill="black" stroke="black" points="474.14,-260.5 484.14,-257 474.14,-253.5 474.14,-260.5"/>
</g>
<!-- AuthService -->
<g id="node10" class="node">
<title>AuthService</title>
<ellipse fill="#fdb462" stroke="black" cx="84" cy="-104" rx="59.11" ry="18"/>
<text text-anchor="middle" x="84" y="-99.8" font-family="Times,serif" font-size="14.00">AuthService</text>
</g>
<!-- AuthService&#45;&gt;AuthModule -->
<g id="edge9" class="edge">
<title>AuthService&#45;&gt;AuthModule</title>
<path fill="none" stroke="black" d="M143.47,-104C159.46,-104 172.42,-104 172.42,-104 172.42,-104 172.42,-151.99 172.42,-151.99"/>
<polygon fill="black" stroke="black" points="168.92,-151.99 172.42,-161.99 175.92,-151.99 168.92,-151.99"/>
</g>
<!-- DatabaseService -->
<g id="node12" class="node">
<title>DatabaseService</title>
<ellipse fill="#fdb462" stroke="black" cx="1094" cy="-248" rx="75.26" ry="18"/>
<text text-anchor="middle" x="1094" y="-243.8" font-family="Times,serif" font-size="14.00">DatabaseService</text>
</g>
<!-- DatabaseService&#45;&gt;DatabaseModule -->
<g id="edge11" class="edge">
<title>DatabaseService&#45;&gt;DatabaseModule</title>
<path fill="none" stroke="black" d="M1031.31,-238C956.59,-238 841.71,-238 841.71,-238 841.71,-238 841.71,-208.03 841.71,-208.03"/>
<polygon fill="black" stroke="black" points="845.21,-208.03 841.71,-198.03 838.21,-208.03 845.21,-208.03"/>
</g>
<!-- EasyTestService -->
<g id="node13" class="node">
<title>EasyTestService</title>
<ellipse fill="#fdb462" stroke="black" cx="258" cy="-104" rx="75.28" ry="18"/>
<text text-anchor="middle" x="258" y="-99.8" font-family="Times,serif" font-size="14.00">EasyTestService</text>
</g>
<!-- EasyTestService&#45;&gt;EasyTestModule -->
<g id="edge12" class="edge">
<title>EasyTestService&#45;&gt;EasyTestModule</title>
<path fill="none" stroke="black" d="M300.48,-119.02C300.48,-119.02 300.48,-151.8 300.48,-151.8"/>
<polygon fill="black" stroke="black" points="296.98,-151.8 300.48,-161.8 303.98,-151.8 296.98,-151.8"/>
</g>
<!-- LeaderboardService -->
<g id="node14" class="node">
<title>LeaderboardService</title>
<ellipse fill="#fdb462" stroke="black" cx="462" cy="-104" rx="88.56" ry="18"/>
<text text-anchor="middle" x="462" y="-99.8" font-family="Times,serif" font-size="14.00">LeaderboardService</text>
</g>
<!-- LeaderboardService&#45;&gt;LeaderboardModule -->
<g id="edge13" class="edge">
<title>LeaderboardService&#45;&gt;LeaderboardModule</title>
<path fill="none" stroke="black" d="M462,-122.01C462,-122.01 462,-151.85 462,-151.85"/>
<polygon fill="black" stroke="black" points="458.5,-151.85 462,-161.85 465.5,-151.85 458.5,-151.85"/>
</g>
<!-- QuestService -->
<g id="node15" class="node">
<title>QuestService</title>
<ellipse fill="#fdb462" stroke="black" cx="654" cy="-104" rx="62.54" ry="18"/>
<text text-anchor="middle" x="654" y="-99.8" font-family="Times,serif" font-size="14.00">QuestService</text>
</g>
<!-- QuestService&#45;&gt;QuestModule -->
<g id="edge14" class="edge">
<title>QuestService&#45;&gt;QuestModule</title>
<path fill="none" stroke="black" d="M614.29,-117.94C614.29,-117.94 614.29,-151.84 614.29,-151.84"/>
<polygon fill="black" stroke="black" points="610.79,-151.84 614.29,-161.84 617.79,-151.84 610.79,-151.84"/>
</g>
<!-- RedisService -->
<g id="node17" class="node">
<title>RedisService</title>
<ellipse fill="#fdb462" stroke="black" cx="1407" cy="-248" rx="61.97" ry="18"/>
<text text-anchor="middle" x="1407" y="-243.8" font-family="Times,serif" font-size="14.00">RedisService</text>
</g>
<!-- RedisService&#45;&gt;RedisModule -->
<g id="edge16" class="edge">
<title>RedisService&#45;&gt;RedisModule</title>
<path fill="none" stroke="black" d="M1407,-229.73C1407,-211.44 1407,-186 1407,-186 1407,-186 988.88,-186 988.88,-186"/>
<polygon fill="black" stroke="black" points="988.88,-182.5 978.88,-186 988.88,-189.5 988.88,-182.5"/>
</g>
<!-- UserService -->
<g id="node18" class="node">
<title>UserService</title>
<ellipse fill="#fdb462" stroke="black" cx="815" cy="-104" rx="58.44" ry="18"/>
<text text-anchor="middle" x="815" y="-99.8" font-family="Times,serif" font-size="14.00">UserService</text>
</g>
<!-- UserService&#45;&gt;UserModule -->
<g id="edge17" class="edge">
<title>UserService&#45;&gt;UserModule</title>
<path fill="none" stroke="black" d="M756.52,-104C741.14,-104 728.75,-104 728.75,-104 728.75,-104 728.75,-151.99 728.75,-151.99"/>
<polygon fill="black" stroke="black" points="725.25,-151.99 728.75,-161.99 732.25,-151.99 725.25,-151.99"/>
</g>
</g>
</svg>
